<?xml version="1.0" encoding="utf-8"?>
<COLLADA xmlns="http://www.collada.org/2005/11/COLLADASchema" version="1.4.1" xmlns:xsi="http://www.w3.org/2001/XMLSchema-instance">
  <asset>
    <contributor>
      <author>Blender User</author>
      <authoring_tool>Blender 4.5.2 LTS commit date:2025-08-19, commit time:15:00, hash:ab25eae04993</authoring_tool>
    </contributor>
    <created>2025-10-04T10:10:56</created>
    <modified>2025-10-04T10:10:56</modified>
    <unit name="meter" meter="1"/>
    <up_axis>Z_UP</up_axis>
  </asset>
  <library_effects/>
  <library_images/>
  <library_geometries>
    <geometry id="立方体_049-mesh" name="立方体.049">
      <mesh>
        <source id="立方体_049-mesh-positions">
          <float_array id="立方体_049-mesh-positions-array" count="24">-0.1749999 -0.175 -0.175 -0.175 -0.175 0.175 -0.175 0.1749999 -0.175 -0.1750001 0.1749999 0.175 0.1750001 -0.1749999 -0.175 0.175 -0.1749999 0.175 0.175 0.175 -0.175 0.1749999 0.175 0.175</float_array>
          <technique_common>
            <accessor source="#立方体_049-mesh-positions-array" count="8" stride="3">
              <param name="X" type="float"/>
              <param name="Y" type="float"/>
              <param name="Z" type="float"/>
            </accessor>
          </technique_common>
        </source>
        <source id="立方体_049-mesh-normals">
          <float_array id="立方体_049-mesh-normals-array" count="24">-0.577372 -0.5773396 0.5773393 -0.5773722 0.5773392 -0.5773395 -0.5773282 -0.5773614 -0.5773612 -0.5773288 0.577361 0.5773611 0.5773284 0.5773614 -0.5773611 0.5773718 0.5773397 0.5773395 0.5773724 -0.5773392 -0.5773393 0.5773286 -0.577361 0.5773612</float_array>
          <technique_common>
            <accessor source="#立方体_049-mesh-normals-array" count="8" stride="3">
              <param name="X" type="float"/>
              <param name="Y" type="float"/>
              <param name="Z" type="float"/>
            </accessor>
          </technique_common>
        </source>
        <source id="立方体_049-mesh-map-0">
          <float_array id="立方体_049-mesh-map-0-array" count="72">0.9999963 0.9999962 3.8743e-6 3.8743e-6 0.9999963 3.8743e-6 0.9999963 0.9999962 3.8743e-6 3.8743e-6 0.9999963 3.8743e-6 0.9999963 0.9999962 3.8743e-6 3.8743e-6 0.9999963 3.8743e-6 0.9999963 0.9999962 3.8743e-6 3.8743e-6 0.9999963 3.8743e-6 0.4723123 1.307443 0.4723123 1.307443 0.4723123 1.307443 1 1.000443 0 -4.43399e-4 1 -4.43399e-4 0.9999963 0.9999962 3.8743e-6 0.9999962 3.8743e-6 3.8743e-6 0.9999963 0.9999962 3.8743e-6 0.9999962 3.8743e-6 3.8743e-6 0.9999963 0.9999962 3.8743e-6 0.9999962 3.8743e-6 3.8743e-6 0.9999963 0.9999962 3.8743e-6 0.9999962 3.8743e-6 3.8743e-6 0.4723123 1.307443 0.4723123 1.307443 0.4723123 1.307443 1 1.000443 0 1.000443 0 -4.43399e-4</float_array>
          <technique_common>
            <accessor source="#立方体_049-mesh-map-0-array" count="36" stride="2">
              <param name="S" type="float"/>
              <param name="T" type="float"/>
            </accessor>
          </technique_common>
        </source>
        <vertices id="立方体_049-mesh-vertices">
          <input semantic="POSITION" source="#立方体_049-mesh-positions"/>
        </vertices>
        <triangles count="4">
          <input semantic="VERTEX" source="#立方体_049-mesh-vertices" offset="0"/>
          <input semantic="NORMAL" source="#立方体_049-mesh-normals" offset="1"/>
          <input semantic="TEXCOORD" source="#立方体_049-mesh-map-0" offset="2" set="0"/>
          <p>6 4 12 0 2 13 2 1 14 3 3 15 5 7 16 7 5 17 6 4 30 4 6 31 0 2 32 3 3 33 1 0 34 5 7 35</p>
        </triangles>
        <triangles count="2">
          <input semantic="VERTEX" source="#立方体_049-mesh-vertices" offset="0"/>
          <input semantic="NORMAL" source="#立方体_049-mesh-normals" offset="1"/>
          <input semantic="TEXCOORD" source="#立方体_049-mesh-map-0" offset="2" set="0"/>
          <p>7 5 6 4 6 7 6 4 8 7 5 24 5 7 25 4 6 26</p>
        </triangles>
        <triangles count="2">
          <input semantic="VERTEX" source="#立方体_049-mesh-vertices" offset="0"/>
          <input semantic="NORMAL" source="#立方体_049-mesh-normals" offset="1"/>
          <input semantic="TEXCOORD" source="#立方体_049-mesh-map-0" offset="2" set="0"/>
          <p>3 3 3 6 4 4 2 1 5 3 3 21 7 5 22 6 4 23</p>
        </triangles>
        <triangles count="2">
          <input semantic="VERTEX" source="#立方体_049-mesh-vertices" offset="0"/>
          <input semantic="NORMAL" source="#立方体_049-mesh-normals" offset="1"/>
          <input semantic="TEXCOORD" source="#立方体_049-mesh-map-0" offset="2" set="0"/>
          <p>1 0 0 2 1 1 0 2 2 1 0 18 3 3 19 2 1 20</p>
        </triangles>
        <triangles count="2">
          <input semantic="VERTEX" source="#立方体_049-mesh-vertices" offset="0"/>
          <input semantic="NORMAL" source="#立方体_049-mesh-normals" offset="1"/>
          <input semantic="TEXCOORD" source="#立方体_049-mesh-map-0" offset="2" set="0"/>
          <p>5 7 9 0 2 10 4 6 11 5 7 27 1 0 28 0 2 29</p>
        </triangles>
      </mesh>
    </geometry>
  </library_geometries>
  <library_visual_scenes>
    <visual_scene id="Scene" name="Scene">
      <node id="blue_fake_KFS" name="blue_fake_KFS" type="NODE">
        <matrix sid="transform">1 0 0 0 0 1 0 0 0 0 1 0 0 0 0 1</matrix>
        <instance_geometry url="#立方体_049-mesh" name="blue_fake_KFS"/>
      </node>
    </visual_scene>
  </library_visual_scenes>
  <scene>
    <instance_visual_scene url="#Scene"/>
  </scene>
</COLLADA>